# xmcd CD database file
#
# Track frame offsets:
#	150
#	11165
#	51225
#	67905
#	83900
#	120620
#	143865
#	160305
#	179620
#	201095
#	215280
#	230570
#	260284
#	280380
#	309120
#
# Disc length: 4344 seconds
#
# Revision: 0
# Processed by: cddbd v1.5.1PL0 Copyright (c) Steve Scherf et al.
# Submitted via: CDex 1.51
#
DISCID=d510f60f
DTITLE=Andy Biskin Quintet - Dogmental
DYEAR=2000
DGENRE=Jazz
TTITLE0=Laughing Stock
TTITLE1=Field Days
TTITLE2=Sad Commentary
TTITLE3=As the Crows Fly
TTITLE4=My Sentiments Exactly
TTITLE5=Dogmental
TTITLE6=Little Elsa
TTITLE7=Rondel
TTITLE8=No Bones
TTITLE9=Table Manners
TTITLE10=Good Question
TTITLE11=Brunching at the Bistro
TTITLE12=Story Line
TTITLE13=Flim Flam
TTITLE14=Off Peak
EXTD=YEAR: 2000
EXTT0=
EXTT1=
EXTT2=
EXTT3=
EXTT4=
EXTT5=
EXTT6=
EXTT7=
EXTT8=
EXTT9=
EXTT10=
EXTT11=
EXTT12=
EXTT13=
EXTT14=
PLAYORDER=
